<svg width="24" height="25" viewBox="0 0 24 25" fill="none" xmlns="http://www.w3.org/2000/svg">
<path d="M3.10539 0.300049H18.5534L18.6005 0.323486L18.9066 0.38208L19.2481 0.47583L19.6013 0.628174L19.8015 0.733643L19.931 0.815674L20.1429 0.956299L20.3078 1.09692L20.4608 1.23755L20.6257 1.40161L20.7552 1.56567L20.8965 1.75317L21.0025 1.92896L21.1555 2.21021L21.3086 2.60864L21.4852 3.06567L21.6736 3.5813L21.8502 4.08521L21.9797 4.49536L22.0975 4.84692L22.2741 5.4563L22.4625 6.13599L22.5567 6.51099L22.7922 7.5188L22.8864 8.01099L23.0747 9.06567L23.1689 9.74536L23.2396 10.3782L23.2749 10.7532L23.322 11.4915L23.3338 11.843L23.3456 12.5461V18.886L23.3338 19.425L23.3102 19.636L23.2631 19.8821L23.1925 20.1282L23.0983 20.3625L23.0041 20.55L22.9335 20.679L22.8157 20.8547L22.698 21.0071L22.5802 21.136L22.5213 21.2063L22.4272 21.2883L22.3447 21.3704L22.2152 21.4758L22.0975 21.5813L21.968 21.6868L21.7913 21.8391L21.6383 21.968L21.4617 22.1204L21.3321 22.2258L21.2144 22.3313L21.0849 22.4368L20.9554 22.554L20.8258 22.6594L20.661 22.8L20.5315 22.9055L20.4137 23.011L20.2842 23.1165L20.1076 23.2688L20.0134 23.3508L19.8603 23.4797L19.7308 23.5852L19.6131 23.6907L19.4836 23.7961L19.3658 23.9016L19.2363 24.0071L19.0715 24.1477L18.9184 24.2766L18.8948 24.3H2.64619L2.49313 24.2649L2.19877 24.1946L1.9515 24.1125L1.71602 24.0071L1.50408 23.8899L1.36279 23.7961L1.20972 23.679L0.974231 23.468L0.80939 23.2922L0.691646 23.1399L0.573902 22.9641L0.467933 22.7766L0.350189 22.5305L0.255994 22.2493L0.197122 21.9915L0.161799 21.7219L0.150024 21.511V15.511L0.173573 14.8079L0.220671 14.2688L0.267768 13.8586L0.361963 13.2493L0.503256 12.5461L0.609225 12.1125L0.738743 11.6086L0.927134 10.9758L1.16262 10.2375L1.42166 9.44067L1.65715 8.70239L1.84554 8.11646L2.02215 7.50708L2.12812 7.08521L2.23409 6.62817L2.01038 6.51099L1.83376 6.41724L1.55118 6.22974L1.43343 6.13599L1.31569 6.03052L1.22149 5.94849L1.05665 5.78442L0.974231 5.69067L0.832938 5.51489L0.656323 5.24536L0.491481 4.92896L0.397286 4.69458L0.314866 4.43677L0.232445 4.05005L0.197122 3.65161V3.49927L0.220671 3.19458L0.267768 2.90161L0.350189 2.59692L0.456158 2.30396L0.609225 1.98755L0.785841 1.7063L0.938908 1.50708L1.04488 1.38989L1.1273 1.29614L1.29214 1.13208L1.42166 1.02661L1.62182 0.874268L1.78666 0.768799L1.97505 0.66333L2.26941 0.522705L2.58732 0.417236L2.81103 0.358643L3.08185 0.311768L3.10539 0.300049ZM3.56459 2.17505L3.27024 2.19849L3.07007 2.24536L2.89346 2.31567L2.69329 2.43286L2.54022 2.56177L2.44603 2.65552L2.31651 2.8313L2.21054 3.03052L2.13989 3.24146L2.10457 3.48755V3.73364L2.15167 3.96802L2.22232 4.15552L2.29296 4.29614L2.38716 4.43677L2.51667 4.57739L2.64619 4.69458L2.81103 4.80005L3.0112 4.8938L3.17604 4.94067L3.38798 4.97583L6.10786 4.98755L6.13141 4.97583L6.14318 3.54614L6.16673 3.19458L6.22561 2.85474L6.30803 2.56177L6.39045 2.33911L6.44932 2.19849V2.17505H3.56459ZM9.46356 2.17505L9.20452 2.19849L9.00436 2.24536L8.85129 2.30396L8.69823 2.38599L8.56871 2.47974L8.42741 2.60864L8.33322 2.71411L8.2508 2.8313L8.13305 3.05396L8.07418 3.24146L8.03886 3.49927L8.02709 3.99146V8.72583L8.08596 8.73755H9.87566L9.89921 8.72583L9.91099 3.53442L9.93454 3.18286L9.99341 2.85474L10.0758 2.56177L10.1582 2.33911L10.2171 2.19849V2.17505H9.46356ZM13.2314 2.17505L12.9606 2.19849L12.7368 2.25708L12.5955 2.31567L12.466 2.38599L12.3365 2.47974L12.2188 2.58521L12.1363 2.66724L12.0186 2.8313L11.9009 3.05396L11.842 3.22974L11.8067 3.48755L11.7949 3.88599V4.97583H15.1624L15.1035 4.82349L15.0093 4.56567L14.9269 4.24927L14.8798 3.96802L14.8562 3.66333V3.51099L14.8798 3.18286L14.9386 2.85474L15.0446 2.49146L15.1624 2.19849V2.17505H13.2314ZM18.0118 2.18677L17.7998 2.22192L17.5879 2.29224L17.4113 2.38599L17.2817 2.47974L17.1405 2.60864L17.0463 2.71411L16.9638 2.8313L16.8579 3.03052L16.7872 3.24146L16.7519 3.48755V3.73364L16.799 3.96802L16.8814 4.19067L16.9756 4.35474L17.0934 4.50708L17.2347 4.64771L17.4348 4.78833L17.6585 4.8938L17.8116 4.94067L18.0118 4.97583L18.1531 4.98755V6.86255H11.8067L11.7949 7.31958V10.6125L6.14318 10.6008L6.13141 6.86255H4.14154L4.10622 6.9563L3.91783 7.75317L3.77653 8.2688L3.67056 8.63208L3.41153 9.44067L3.19959 10.1086L3.0112 10.6829L2.82281 11.2688L2.70507 11.6438L2.52845 12.2649L2.37538 12.8743L2.25764 13.4368L2.18699 13.8352L2.12812 14.2688L2.08102 14.7493L2.05747 15.2297L2.0457 20.3625V21.3586L2.05747 21.593L2.10457 21.804L2.19877 21.9915L2.28119 22.0969L2.30474 22.1321H2.32828L2.34006 22.1672L2.48135 22.2727L2.64619 22.3547L2.82281 22.4016L2.90523 22.4133L17.6468 22.425L17.6703 22.4133L17.6821 15.4641L17.7056 14.7375L17.7527 14.1633L17.7998 13.718L17.8822 13.1086L18.0118 12.3469L18.2001 11.4563L18.3414 10.8L18.5298 10.05L18.7418 9.19458L18.9302 8.44458L19.095 7.75317L19.2952 6.83911L19.3658 6.47583L19.4247 6.11255L19.4953 5.59692L19.5424 5.04614L19.5542 4.75317V3.52271L19.5307 3.31177L19.46 3.06567L19.3658 2.86646L19.2598 2.71411L19.1539 2.59692L19.0597 2.50317L18.8948 2.38599L18.7064 2.29224L18.5534 2.23364L18.4003 2.19849L18.3061 2.18677H18.0118ZM20.9554 8.09302L20.8141 8.65552L20.5786 9.62817L20.3902 10.3782L20.2018 11.1399L20.0841 11.6672L19.9545 12.2766L19.8486 12.7922L19.7544 13.343L19.6602 14.0344L19.6013 14.6907L19.5778 15.1829L19.566 19.4836V20.6086L19.5778 21.218L19.6248 21.1946L19.7897 21.054L19.9074 20.9485L20.037 20.843L20.2018 20.7024L20.3784 20.55L20.5079 20.4446L20.6257 20.3391L20.7552 20.2336L20.8729 20.1282L21.0025 20.0227L21.1437 19.8938L21.2615 19.7766L21.3675 19.5891L21.4263 19.3899L21.4381 19.2961V12.0774L21.4146 11.4211L21.3792 10.9172L21.3086 10.179L21.2379 9.65161L21.1437 9.0188L21.0025 8.25708L20.9671 8.09302H20.9554Z" fill="#B0223D"/>
</svg>
