<svg width="26" height="25" viewBox="0 0 26 25" fill="none" xmlns="http://www.w3.org/2000/svg">
<path d="M9.3 24.6C9.16769 24.5994 9.03681 24.5727 8.91494 24.5212C8.79306 24.4697 8.68262 24.3945 8.59 24.3L6.3 22.01C6.13774 21.846 6.03716 21.631 6.01529 21.4014C5.99342 21.1718 6.05161 20.9416 6.18 20.75C6.33676 20.5024 6.40456 20.2089 6.37226 19.9177C6.33996 19.6264 6.20948 19.3549 6.00229 19.1477C5.7951 18.9405 5.52355 18.81 5.23232 18.7777C4.9411 18.7454 4.64755 18.8132 4.4 18.97C4.20836 19.0984 3.97823 19.1566 3.7486 19.1347C3.51897 19.1128 3.30396 19.0123 3.14 18.85L0.8 16.56C0.705512 16.4674 0.630342 16.3569 0.578845 16.2351C0.527348 16.1132 0.500549 15.9823 0.5 15.85C0.500549 15.7177 0.527348 15.5868 0.578845 15.4649C0.630342 15.3431 0.705512 15.2326 0.8 15.14L15.64 0.3C15.7326 0.205512 15.8431 0.130342 15.9649 0.078845C16.0868 0.0273484 16.2177 0.00054925 16.35 0C16.4823 0.00054925 16.6132 0.0273484 16.7351 0.078845C16.8569 0.130342 16.9674 0.205512 17.06 0.3L19.35 2.59C19.5123 2.75396 19.6128 2.96897 19.6347 3.1986C19.6566 3.42823 19.5984 3.65836 19.47 3.85C19.2884 4.10098 19.2031 4.40896 19.2298 4.71762C19.2566 5.02628 19.3935 5.31502 19.6156 5.53104C19.8377 5.74706 20.1301 5.87593 20.4394 5.8941C20.7486 5.91227 21.0541 5.81853 21.3 5.63C21.4916 5.50161 21.7218 5.44342 21.9514 5.46529C22.181 5.48716 22.396 5.58774 22.56 5.75L24.85 8.04C24.9445 8.13262 25.0197 8.24306 25.0712 8.36493C25.1227 8.48681 25.1495 8.61769 25.15 8.75C25.1495 8.88231 25.1227 9.01319 25.0712 9.13507C25.0197 9.25694 24.9445 9.36738 24.85 9.46L9.96 24.3C9.78527 24.479 9.54978 24.5861 9.3 24.6ZM8.21 21.1L9.3 22.18L22.68 8.75L21.6 7.66C21.0205 7.85563 20.3978 7.88532 19.8023 7.74572C19.2068 7.60613 18.6622 7.3028 18.23 6.87C17.7999 6.43609 17.4991 5.891 17.3614 5.29578C17.2236 4.70057 17.2543 4.07875 17.45 3.5L16.35 2.42L2.92 15.85L4 16.94C4.57967 16.7433 5.20281 16.7128 5.79895 16.8518C6.39508 16.9908 6.94041 17.2939 7.37325 17.7267C7.80609 18.1596 8.10917 18.7049 8.24821 19.3011C8.38725 19.8972 8.35669 20.5203 8.16 21.1H8.21Z" fill="#AB0827"/>
</svg>
