<svg width="19" height="26" viewBox="0 0 19 26" fill="none" xmlns="http://www.w3.org/2000/svg">
<path d="M17.5337 5.34276H14.3589V2.12763C14.3589 1.99351 14.3208 1.86141 14.248 1.74269C14.1751 1.62397 14.0697 1.52219 13.9408 1.44611C13.8118 1.37003 13.6632 1.32193 13.5077 1.30595C13.3523 1.28997 13.1946 1.30658 13.0483 1.35437L0.76653 5.36603C0.764777 5.3666 0.763173 5.36736 0.761434 5.36795C0.753333 5.37071 0.745433 5.37377 0.737588 5.37695C0.732668 5.37893 0.727734 5.38086 0.722948 5.38298C0.716357 5.38593 0.709967 5.38915 0.703591 5.39239C0.697889 5.39526 0.692173 5.3981 0.686687 5.40118C0.681726 5.40398 0.676981 5.407 0.672168 5.40998C0.665833 5.41389 0.659497 5.41777 0.653472 5.42196C0.649644 5.42462 0.646044 5.42748 0.642337 5.43024C0.63592 5.43503 0.629531 5.43981 0.623505 5.4449C0.620068 5.4478 0.616873 5.45091 0.613557 5.45392C0.607841 5.4591 0.602112 5.46426 0.596788 5.46971C0.593107 5.47348 0.589737 5.47746 0.586233 5.48135C0.581798 5.48629 0.577282 5.49119 0.573171 5.49632C0.569126 5.50133 0.565487 5.50657 0.561766 5.51175C0.558666 5.51606 0.555444 5.52029 0.552573 5.5247C0.548609 5.53078 0.545091 5.53707 0.541546 5.54337C0.539362 5.54723 0.537043 5.55103 0.535021 5.55496C0.531691 5.56146 0.528821 5.56815 0.525922 5.57486C0.52417 5.57894 0.522269 5.58297 0.520692 5.5871C0.518318 5.59331 0.516378 5.59966 0.514398 5.60601C0.512834 5.61103 0.51119 5.61601 0.50987 5.6211C0.508481 5.62651 0.507444 5.63202 0.506352 5.63752C0.505082 5.64385 0.503831 5.65017 0.502968 5.65656C0.502348 5.66111 0.502012 5.66571 0.501594 5.6703C0.500919 5.67776 0.500394 5.68522 0.500272 5.69274C0.500256 5.69432 0.5 5.69585 0.5 5.69745V24.9454C0.499996 24.9919 0.510704 25.0381 0.531514 25.0811C0.552323 25.1241 0.582826 25.1632 0.621281 25.1962C0.659736 25.2291 0.705388 25.2552 0.755632 25.2731C0.805876 25.2909 0.859728 25.3001 0.91411 25.3H17.5337C17.7899 25.2998 18.0355 25.2125 18.2167 25.0574C18.3978 24.9022 18.4997 24.6919 18.5 24.4724V6.17037C18.4997 5.95095 18.3978 5.74059 18.2167 5.58544C18.0355 5.43028 17.7899 5.34301 17.5337 5.34276ZM13.3435 2.0172C13.3644 2.01037 13.3869 2.00799 13.4091 2.01027C13.4313 2.01255 13.4525 2.01942 13.4709 2.03028C13.4894 2.04115 13.5044 2.05568 13.5148 2.07264C13.5252 2.0896 13.5307 2.10847 13.5307 2.12763V5.34276H3.16222L13.3435 2.0172ZM17.6718 24.4724C17.6717 24.5038 17.6572 24.5338 17.6313 24.556C17.6054 24.5782 17.5703 24.5906 17.5337 24.5907H1.32822V6.05214H17.5337C17.5703 6.05217 17.6054 6.06463 17.6313 6.0868C17.6572 6.10897 17.6717 6.13902 17.6718 6.17037V24.4724Z" fill="#AB0827" stroke="#AB0827"/>
<rect x="6.5" y="10.3" width="6" height="2" rx="1" fill="#AB0827"/>
<rect x="6.5" y="14.3" width="6" height="2" rx="1" fill="#AB0827"/>
<rect x="6.5" y="18.3" width="6" height="2" rx="1" fill="#AB0827"/>
</svg>
